<svg version="1.0" viewBox="0 0 701.05 447.16" xmlns="http://www.w3.org/2000/svg"><text x="-551.23297" y="-26.045601" fill="#000000" font-family="'DejaVu Sans'" font-size="39.999px" letter-spacing="0px" stroke-width=".99999px" word-spacing="0px" style="line-height:125%" xml:space="preserve"><tspan x="-551.23297" y="9.3450232" stroke-width=".99999px"/></text><g stroke-width="3.7795"><ellipse cx="74.14" cy="145.68" rx="74.136" ry="72.837" fill-opacity=".99938" style="paint-order:normal"/><rect x="7.3242e-6" y="117.64" width="74.136" height="173.72" rx="31.909" ry="31.445" fill-opacity=".99938" style="paint-order:normal"/><ellipse cx="222.4" cy="145.68" rx="74.136" ry="72.837" fill="#9c27b0" style="paint-order:normal"/><ellipse cx="370.68" cy="145.68" rx="74.136" ry="72.837" fill="#e91e63" style="paint-order:normal"/><g fill-opacity=".99938"><rect x="444.82" y="-5.4932e-7" width="74.136" height="218.51" rx="31.909" ry="31.445" style="paint-order:normal"/><ellipse cx="534.31" cy="200.29" rx="18.534" ry="18.21" style="paint-order:normal"/><ellipse cx="589.78" cy="182.09" rx="37.068" ry="36.419" style="paint-order:normal"/></g><rect x="552.75" y="169.83" width="37.068" height="85.099" rx="15.955" ry="15.723" style="paint-order:normal"/><path d="m649.68 145.68c-4.0811-0.11839-8.1098 1.1452-11.645 3.6518-6.8815 4.8793-11.121 13.897-11.121 23.655v45.523h14.828v-25.129c1.6991-13.471 14.584-9.8206 14.828 0v25.129h14.828v-25.129c1.699-13.471 14.584-9.8206 14.828 0v25.129h14.827v-45.523c2e-4 -9.7586-4.2389-18.776-11.121-23.655-6.8816-4.8793-15.36-4.8793-22.241 0-1.3305 0.94725-2.5774 2.0614-3.7208 3.3247-1.1346-1.2613-2.3722-2.3754-3.6931-3.3247-3.227-2.2882-6.8706-3.5439-10.596-3.6518z" fill-opacity=".99938"/><g fill="#fff"><ellipse cx="240.95" cy="127.48" rx="37.068" ry="36.419" fill-opacity=".88235" style="paint-order:normal"/><ellipse cx="389.2" cy="127.48" rx="37.068" ry="36.419" fill-opacity=".88235" style="paint-order:normal"/><ellipse cx="92.67" cy="127.48" rx="37.068" ry="36.419" fill-opacity=".88372" style="paint-order:normal"/></g></g><g fill-opacity=".99938" stroke-width="1px"><path d="m111.91 244.04c-0.7461-6.0827-5.4321-9.5806-11.637-9.5806-7.0815 0-12.487 4.9125-12.487 13.529 0 8.5904 5.3144 13.529 12.487 13.529 6.872 0 11.021-4.4882 11.637-9.3363l-5.7332-0.0257c-0.53666 2.8163-2.7881 4.4367-5.8118 4.4367-4.0708 0-6.8328-2.9706-6.8328-8.6033 0-5.4784 2.7226-8.6033 6.872-8.6033 3.1022 0 5.3405 1.7618 5.7725 4.6553z"/><path d="m120.1 261.16 1.9897-6.0056h9.6731l1.9896 6.0056h6.0736l-9.2412-26.337h-7.3039l-9.2543 26.337zm3.4295-10.352 3.2986-9.9665h0.20943l3.2986 9.9665z"/><path d="m143.06 261.16h5.6678v-9.3363h4.1363l5.0787 9.3363h6.2568l-5.6939-10.236c3.0499-1.286 4.7384-3.8966 4.7384-7.4973 0-5.2339-3.5211-8.6033-9.6078-8.6033h-10.576zm5.6678-13.811v-7.9731h3.8221c3.2724 0 4.8562 1.4274 4.8562 4.0508 0 2.6105-1.5839 3.9223-4.83 3.9223z"/><path d="m176.74 261.16c8.1678 0 13.116-4.9639 13.116-13.194 0-8.2047-4.9478-13.143-13.037-13.143h-9.5815v26.337zm-3.8352-4.771v-16.795h3.6127c5.0263 0 7.6836 2.5205 7.6836 8.3718 0 5.877-2.6571 8.4232-7.6967 8.4232z"/><path d="m197.16 261.16 1.9896-6.0056h9.6731l1.9896 6.0056h6.0736l-9.2412-26.337h-7.3039l-9.2543 26.337zm3.4294-10.352 3.2986-9.9665h0.20943l3.2986 9.9665z"/><path d="m242.53 234.82h-5.6416v16.564h-0.23562l-11.571-16.564h-4.9741v26.337h5.6678v-16.577h0.19634l11.663 16.577h4.8955z"/><path d="m271.84 247.99c0-8.6161-5.4452-13.529-12.553-13.529-7.1468 0-12.553 4.9125-12.553 13.529 0 8.5776 5.406 13.529 12.553 13.529 7.1076 0 12.553-4.9125 12.553-13.529zm-5.7463 0c0 5.5812-2.6965 8.6033-6.8065 8.6033-4.1232 0-6.8065-3.0221-6.8065-8.6033s2.6834-8.6033 6.8065-8.6033c4.1102 0 6.8065 3.0221 6.8065 8.6033z"/><path d="m287.83 240.08h-3.2357v21.07h3.2357z"/><path d="m309.86 240.08h-3.2043v15.473h-0.19896l-10.911-15.473h-2.9949v21.07h3.2358v-15.453h0.19895l10.901 15.453h2.9739z"/><path d="m323.09 261.16h5.6678v-9.3363h4.1363l5.0787 9.3363h6.2568l-5.6939-10.236c3.0499-1.286 4.7384-3.8966 4.7384-7.4973 0-5.2339-3.5211-8.6033-9.6078-8.6033h-10.576zm5.6678-13.811v-7.9731h3.8221c3.2724 0 4.8562 1.4274 4.8562 4.0508 0 2.6105-1.5839 3.9223-4.83 3.9223z"/><path d="m347.28 261.16h18.116v-4.5909h-12.448v-6.2885h11.466v-4.5909h-11.466v-6.2757h12.395v-4.591h-18.063z"/><path d="m374.48 261.16 1.9896-6.0056h9.6731l1.9896 6.0056h6.0736l-9.2412-26.337h-7.3039l-9.2543 26.337zm3.4294-10.352 3.2986-9.9665h0.20943l3.2986 9.9665z"/><path d="m397.43 261.16h17.16v-4.5909h-11.492v-21.746h-5.6678z"/><path d="m413.99 239.41h8.2072v21.746h5.6023v-21.746h8.2072v-4.591h-22.016z"/><path d="m445.31 234.82h-5.6678v26.337h5.6678z"/><path d="m449.98 234.82v26.337h5.4976v-17.206h0.22253l6.9375 17.078h3.7436l6.9375-17.014h0.22251v17.142h5.4976v-26.337h-6.9899l-7.3825 17.695h-0.31415l-7.3825-17.695z"/><path d="m483.7 261.16h18.116v-4.5909h-12.448v-6.2885h11.466v-4.5909h-11.466v-6.2757h12.395v-4.591h-18.063z"/></g><g transform="translate(-5.0491 .0073637)"><g fill-opacity=".99938"><g stroke-width=".99998"><path d="m110.6 437.99c-0.46389-2.8346-2.7369-4.4915-5.6063-4.4915-3.5122 0-6.1034 2.5693-6.1034 6.8084s2.5778 6.8084 6.1034 6.8084c2.9821 0 5.1623-1.8251 5.6063-4.4461l-2.0676-7e-3c-0.35123 1.6956-1.8092 2.6276-3.5255 2.6276-2.326 0-4.0822-1.741-4.0822-4.9833 0-3.2165 1.7495-4.9834 4.0888-4.9834 1.7296 0 3.1809 0.95137 3.5189 2.6664z"/><path d="m119.15 446.94 1.2458-3.5077h5.3016l1.2392 3.5077h2.1736l-4.884-13.254h-2.3658l-4.884 13.254zm1.8423-5.1904 2.0013-5.6564h0.10604l2.0013 5.6564z"/><path d="m136 446.94h2.0477v-5.0157h2.9159l2.7568 5.0157h2.3326l-3.0086-5.3652c1.6634-0.60188 2.4917-1.9545 2.4917-3.7342 0-2.4399-1.5507-4.1549-4.6984-4.1549h-4.8376zm2.0477-6.7372v-4.8021h2.5712c2.0212 0 2.8562 0.93843 2.8562 2.4399 0 1.495-0.83499 2.3623-2.8297 2.3623z"/><path d="m157.37 446.94c4.1351 0 6.5275-2.5046 6.5275-6.6466 0-4.1226-2.3923-6.6078-6.3883-6.6078h-4.5328v13.254zm-2.3459-1.7474v-9.7596h2.3591c2.9688 0 4.4996 1.7344 4.4996 4.8603 0 3.1388-1.5308 4.8992-4.6256 4.8992z"/><path d="m172.54 446.94 1.2458-3.5077h5.3015l1.2392 3.5077h2.1736l-4.884-13.254h-2.3658l-4.884 13.254zm1.8423-5.1904 2.0013-5.6564h0.10602l2.0013 5.6564z"/><path d="m200.35 433.69h-2.0278v9.7337h-0.12591l-6.9052-9.7337h-1.8953v13.254h2.0477v-9.7207h0.12591l6.8985 9.7207h1.882z"/><path d="m220.07 440.31c0-4.2391-2.5978-6.8084-6.11-6.8084-3.5254 0-6.1166 2.5693-6.1166 6.8084 0 4.2326 2.5911 6.8084 6.1166 6.8084 3.5122 0 6.11-2.5693 6.11-6.8084zm-2.0278 0c0 3.2294-1.7495 4.9834-4.0821 4.9834-2.3393 0-4.0822-1.7539-4.0822-4.9834 0-3.2294 1.7429-4.9833 4.0822-4.9833 2.3326 0 4.0821 1.7539 4.0821 4.9833z"/><path d="m244.84 437.16h1.9748c-0.0596-2.1227-1.9814-3.6631-4.7382-3.6631-2.7236 0-4.8111 1.5209-4.8111 3.8055 0 1.8444 1.3519 2.9253 3.5321 3.5013l1.6037 0.42714c1.4513 0.37537 2.5712 0.84135 2.5712 2.0192 0 1.2944-1.2657 2.1486-3.0086 2.1486-1.5772 0-2.8893-0.68602-3.0086-2.1292h-2.0544c0.13254 2.4011 2.0344 3.8832 5.0762 3.8832 3.1875 0 5.0232-1.6374 5.0232-3.8832 0-2.3882-2.1802-3.3136-3.9032-3.7278l-1.3254-0.33653c-1.0603-0.26535-2.4719-0.75074-2.4652-2.0192 0-1.1261 1.0537-1.961 2.7236-1.961 1.5573 0 2.664 0.7119 2.8098 1.935z"/><path d="m253.73 435.4h4.2279v11.533h2.0411v-11.533h4.2346v-1.7215h-10.504z"/><path d="m272.63 446.94 1.2459-3.5077h5.3015l1.2393 3.5077h2.1736l-4.884-13.254h-2.3658l-4.884 13.254zm1.8423-5.1904 2.0013-5.6564h0.10603l2.0013 5.6564z"/><path d="m289.49 446.94h2.0477v-4.1226l1.6037-1.7992 4.387 5.9218h2.4652l-5.4937-7.2873 5.4738-5.967h-2.5778l-5.6924 6.3295h-0.16567v-6.3295h-2.0477z"/><path d="m306.83 446.94h8.5884v-1.7215h-6.5407v-4.0579h6.0172v-1.7151h-6.0172v-4.0384h6.4612v-1.7215h-8.5089z"/><path d="m332.92 446.94h2.0477v-4.6597h2.7833c3.1478 0 4.7051-1.8574 4.7051-4.3038 0-2.4399-1.5441-4.2909-4.6984-4.2909h-4.8376zm2.0477-6.3554v-5.184h2.5712c2.0278 0 2.8562 1.0743 2.8562 2.5758s-0.82836 2.6081-2.8297 2.6081z"/><path d="m361.58 440.31c0-4.2391-2.5978-6.8084-6.11-6.8084-3.5255 0-6.1166 2.5693-6.1166 6.8084 0 4.2326 2.5911 6.8084 6.1166 6.8084 3.5122 0 6.11-2.5693 6.11-6.8084zm-2.0278 0c0 3.2294-1.7495 4.9834-4.0821 4.9834-2.3393 0-4.0822-1.7539-4.0822-4.9834 0-3.2294 1.7429-4.9833 4.0822-4.9833 2.3326 0 4.0821 1.7539 4.0821 4.9833z"/><path d="m380.85 440.31c0-4.2391-2.5978-6.8084-6.11-6.8084-3.5255 0-6.1166 2.5693-6.1166 6.8084 0 4.2326 2.5911 6.8084 6.1166 6.8084 3.5122 0 6.11-2.5693 6.11-6.8084zm-2.0278 0c0 3.2294-1.7495 4.9834-4.0822 4.9834-2.3393 0-4.0821-1.7539-4.0821-4.9834 0-3.2294 1.7429-4.9833 4.0821-4.9833 2.3326 0 4.0822 1.7539 4.0822 4.9833z"/><path d="m388.34 446.94h8.1974v-1.7215h-6.1497v-11.533h-2.0477z"/></g><path d="m171.57 369.04v53.945h11.063v-35.243h0.4478l13.96 34.98h7.5333l13.96-34.848h0.4478v35.112h11.063v-53.945h-14.066l-14.856 36.244h-0.6322l-14.856-36.244z"/><path d="m236.77 399.02h7.8758l-2.0282 5.9002h-5.8476v5.268h4.0301l-4.4251 12.801h12.222l4.1618-12.801h19.149l4.1617 12.801h12.222l-4.4252-12.801h4.0564v-5.268h-5.8475l-2.0546-5.9002h7.9021v-5.268h-9.7195l-8.5079-24.707h-14.698l-8.5342 24.707h-9.6933zm17.701 5.9002 1.9228-5.9002h11.906l1.8966 5.9002zm12.116-11.168h-8.4815l4.03-12.38h0.4215z"/><path d="m328.17 369.04v34.058c0 6.1636-4.3198 10.615-10.958 10.615-6.6114 0-10.958-4.4515-10.958-10.615v-34.058h-11.405v35.033c0 11.8 8.9031 19.676 22.363 19.676 13.407 0 22.363-7.8757 22.363-19.676v-35.033z"/><path d="m384.57 386.48h11.59c-1.475-10.668-10.878-18.175-23.074-18.175-14.25 0-25.234 10.273-25.234 27.763 0 17.068 10.273 27.657 25.471 27.657 13.618 0 23.338-8.6133 23.338-22.811v-6.7958h-22.574v8.5869h11.59c-0.158 6.6904-4.7149 10.931-12.301 10.931-8.5606 0-13.96-6.4007-13.96-17.674 0-11.221 5.6105-17.569 13.855-17.569 5.8739 0 9.8513 3.0291 11.3 8.0865z"/><path d="m124.37 328.34c-0.069-0.0112-0.1012 0.0568-0.1152 0.19058-0.128 1.2581 6.388 12.091 10.302 17.379-1.3598-0.0704-2.9585-0.10163-4.8664-0.10163-16.626 0-28.808 9.1828-28.734 22.958-0.036 11.183 7.8499 17.589 20.662 20.662l8.2575 2.0736c8.2575 1.9995 12.849 4.3695 12.886 9.4794-0.036 5.5543-5.2947 9.331-13.441 9.331-8.3314 0-14.33-3.8508-14.849-11.442h-15.515c0.4074 16.404 12.146 24.883 30.549 24.883 18.514 0 29.4-8.85 29.438-22.736-0.037-12.627-9.5532-19.329-22.735-22.291l-6.8135-1.6292c-6.5912-1.5182-12.108-3.9625-11.998-9.4057 0-4.8878 4.3324-8.4793 12.183-8.4793 0.909 0 1.7751 0.0503 2.5989 0.14661 3.3051 0.65809 3.6356 3.0234 2.9418 3.42-0.7564 0.63526-3.4195 0.53303-5.8862-0.84894-1.292-0.72457-1.6153-0.68696-1.1183 0.12736 0.5124 0.83975 8.4089 4.9102 9.1221 4.8815 0.1082-4e-3 0.2032 0.13411 0.2103 0.30741 0.014 0.21689-0.6912 0.4442-2.2486 0.72983-1.2438 0.22804-2.3071 0.49558-2.3627 0.59421-0.056 0.0985 0.6835 0.32362 1.6426 0.50029 5.2751 0.972 10.787 2.858 10.821 3.7027 0.014 0.10403 0.2193 0.39928 0.4777 0.6556 0.6815 0.67506 1.2911 1.8262 1.3178 2.4886 0.028 0.70846-0.7829 1.6147-2.167 2.4217-1.3215 0.76999-1.3922 1.3058-0.1392 1.045 4.0236-0.8371 11.302-3.9195 11.02-4.6666-0.055-0.14636-0.9356-0.40879-1.9555-0.58367-2.3646-0.40562-2.5518-0.57994-1.6616-1.5444 0.3846-0.41714 0.6906-0.97792 0.6798-1.2466-0.017-0.42603-0.097-0.45586-0.6206-0.23227-1.1143 0.47542-3.0125 0.39415-4.3002-0.18417 0.6481-1.4438-2.4553-5.6844-0.7986-6.2536 1.0233-0.26778 0.5505 1.0301 8.1618 1.6809 1.9133 1.7696-2.0542 3.7056 0.3913 2.8043 0.2451-0.26556 6.4006-0.0756 6.3223 0.19516-0.039 0.13735-0.7202 0.6072-1.5119 1.0432-1.6923 0.93207-2.0032 1.4117-0.8837 1.3648 0.8989-0.038 3.1882-0.49386 3.7774-0.75272 0.2787-0.12259 0.4147-0.0664 0.4242 0.17455 0.014 0.31317-2.3755 2.8434-3.2244 3.4164-0.2429 0.164-0.2515 0.28152-0.035 0.48013 0.2151 0.19869 0.7045 0.0167 1.9947-0.74678 2.6204-1.5486 4.1084-2.5548 4.7871-3.2372 0.3399-0.34173 0.7113-0.62449 0.8252-0.62903 0.4047-0.0165 3.1782-2.5808 2.9807-2.7562-0.1111-0.0985-0.8484-0.26927-1.6397-0.38073-1.5218-0.21414-4.2663-1.2832-6.2982-2.4538-0.6713-0.38664-1.2762-0.76382-1.3446-0.83795-0.069-0.0741-0.5317-0.35996-1.0289-0.63544-0.5034-0.27872-1.3019-1.0835-1.8015-1.8152-0.7256-1.0626-0.9068-1.5489-0.9466-2.5395-0.059-1.4673-0.3981-1.9176-2.5138-3.3366-6.1881-4.1504-8.7581-6.4982-12.708-11.61-1.1416-1.4773-4.4074-7.3928-5.8816-10.654-0.5824-1.2881-1.2684-2.5449-1.5247-2.7933-0.4621-0.44788-0.4656-0.44659-0.4421 0.13692 0.041 1.0392 0.8777 4.3123 1.5957 6.2482 1.1039 2.9761 2.296 5.4492 3.9922 8.2809 0.8656 1.4451 1.5354 2.6687 1.4886 2.7195-0.2295 0.24843-7.6179-7.0609-9.7411-9.637-0.5573-0.67634-1.6887-2.0084-2.5138-2.9605-1.7204-1.9853-2.6864-3.2502-4.3587-5.7057-0.6523-0.95778-0.9734-1.3709-1.1244-1.3964zm23.815 27.192c0.9165-0.0367 3.9345 3.0456 3.9752 4.0601 0.021 0.52252-1.1999 0.39728-2.0689-0.21211-0.9054-0.63476-1.0749-0.87502-1.8464-2.6233-0.5288-1.1985-0.5293-1.2059-0.062-1.2246z"/></g><g stroke-width="1px"><path d="m171.59 336.63h3.4176l4.2721 16.234 4.2535-16.234h4.0306l4.2721 16.234 4.2535-16.234h3.4177l-5.4422 20.803h-4.0306l-4.4764-17.051-4.495 17.051h-4.0306z"/><path d="m204.69 336.63h3.4177v20.803h-3.4177zm0-8.0984h3.4177v4.3278h-3.4177z"/><path d="m218.64 330.73v5.9066h7.0396v2.6561h-7.0396v11.293q0 2.5447 0.68725 3.2691 0.70582 0.72439 2.8418 0.72439h3.5105v2.8604h-3.5105q-3.9563 0-5.4608-1.4674-1.5045-1.4859-1.5045-5.3865v-11.293h-2.5075v-2.6561h2.5075v-5.9066z"/><path d="m247.46 344.88v12.556h-3.4177v-12.445q0-2.9533-1.1516-4.4207t-3.4548-1.4674q-2.7676 0-4.3649 1.7646-1.5974 1.7646-1.5974 4.8107v11.757h-3.4362v-28.901h3.4362v11.33q1.2259-1.876 2.879-2.8047 1.6717-0.92871 3.8449-0.92871 3.5848 0 5.4237 2.2289 1.8388 2.2103 1.8388 6.5196z"/><path d="m282.24 357.87 13.887-13.887c3.3231-3.3231 3.2961-8.8076 0-12.05-3.3771-3.3231-8.659-3.2961-12.05 0l-1.8372 1.7831-1.8372-1.7831c-3.3906-3.2961-8.6725-3.3231-12.05 0-3.2961 3.242-3.3231 8.7265 0 12.05z" fill="#9c27b0"/><path d="m321.15 357.87 13.887-13.887c3.3231-3.3231 3.2961-8.8076 0-12.05-3.3771-3.3231-8.659-3.2961-12.05 0l-1.8372 1.7831-1.8372-1.7831c-3.3906-3.2961-8.6725-3.3231-12.05 0-3.2961 3.242-3.3231 8.7265 0 12.05z" fill="#e91e63"/><path d="m371.21 347.05q0-3.7706-1.5602-5.9066-1.5417-2.1546-4.2535-2.1546t-4.2721 2.1546q-1.5417 2.136-1.5417 5.9066t1.5417 5.9252q1.5602 2.136 4.2721 2.136 2.7118 0 4.2535-2.136 1.5602-2.1546 1.5602-5.9252zm-11.627-7.2625q1.0773-1.8574 2.7118-2.749 1.6531-0.91014 3.9377-0.91014 3.7892 0 6.1481 3.009 2.3775 3.009 2.3775 7.9126t-2.3775 7.9126q-2.3589 3.009-6.1481 3.009-2.2846 0-3.9377-0.89156-1.6345-0.91013-2.7118-2.7676v3.1205h-3.4362v-28.901h3.4362z" fill-opacity=".99938"/><path d="m389.08 359.37q-1.4488 3.7148-2.8233 4.8479t-3.6777 1.133h-2.7304v-2.8604h2.006q1.4116 0 2.1918-0.66867t1.7274-3.1576l0.61295-1.5602-8.4141-20.469h3.622l6.501 16.271 6.501-16.271h3.622z"/></g></g></svg>
